**ABCDEFGHIJKLMNOPQRSTUVWXYZabcdefghijklmnopqrstuvwxyz**************************
**PARASOLID !"#$%&'()*+,-./:;<=>?@[\]^_`{|}~0123456789**************************
**PART1;
MC=^_;
MC_MODEL=authenticamd family 15 model 4 stepping 1, amd ryzen 7 6800h with radeon graphics         ;
MC_ID=^_;
OS=windows nt (x64);
OS_RELEASE=6.3 windows 11 home china (build 26100) ;
FRU=mdc_ugii_v7.0_djl_can_vrh;
APPL=unigraphics;
SITE=unknown;
USER=^_;
FORMAT=text;
GUISE=transmit;
KEY=blade;
FILE=^_;
DATE=7-mar-2025;
**PART2;
SCH=SCH_3601193_36001;
USFLD_SIZE=0;
**PART3;
**END_OF_HEADER*****************************************************************
T51 : TRANSMIT FILE created by modeller version 360119323 SCH_3601193_36001_1300
6231 0 12 36 CCCI7 lattice222 0 CCCI4 mesh1006 0 I8 polyline1008 0 CCCCCCCDI5 ow
ner1040 0 CCCI16 boundary_lattice222 0 CCCI13 boundary_mesh1006 0 I17 boundary_p
olyline1008 0 CCCA16 index_map_offset0 0 1 dA9 index_map82 0 A17 node_id_index_m
ap82 0 A20 schema_embedding_map82 0 A5 child12 0 A14 lowest_node_id0 0 1 dA16 me
sh_offset_data206 0 Z1 644 2 3 0 0 0 0 0 0 0 1e3 1e-8 0 4 0 1 0 1 1 5 0 6 7 8 0
 0 9 10 11 0 0 0 0 0 0 0 81 255 1 2 594 12 1 13 0 0 14 15 70 11 CI9 list_type0 0
 1 uI10 notransmit0 0 1 lCCCDCCDI12 finger_index0 0 1 dI12 finger_block1012 0 CZ
3 0 4 T1 0 0 8 20 1 16 16 13 255 5 13 0 1 0 17 0 0 18 0 50 255 6 204 0 19 20 0 0
 +.0518204053939493 .043 0 -1 3729655473350135e-30 0 -3729655473350135e-30 -1 0
 31 255 7 336 0 10 21 0 0 -0 0 .02 0 0 1 1 0 0 25e-5 29 255 8 344 0 11 22 0 -.00
01967573683101245 .0001542288494921555 0 19 9 CCCCCCI5 frame230 0 CA5 owner12 0
 Z9 11 0 1 18 0 23 0 V0 16 255 10 334 24 ?25 0 26 7 0 0 1 18 255 11 342 0 27 0 2
8 8 ?1 17 255 27 0 29 30 31 11 32 33 0 34 -18 28 322 0 35 11 36 22 ?1 17 35 0 37
 38 39 28 40 41 0 42 +18 36 117 0 43 28 44 45 ?1 29 22 324 0 28 46 8 .0367800408
499976 .0154806148550957 .02 29 46 190 0 47 48 22 -.003700000000000045 .01221984
263023456 0 18 47 107 0 49 50 51 46 ?1 29 48 189 0 52 53 46 .004452281736100095
 -.00588871739295995 .02 18 52 109 0 54 55 50 48 ?1 29 53 188 0 55 56 48 .037370
40539394905 .004230800608130815 .02 18 55 110 0 57 58 52 53 ?1 29 56 187 0 58 59
 53 .03737040539394915 .0262308006081308 .02 18 58 111 0 60 61 55 56 ?1 29 59 18
6 0 61 62 56 .004452281736100155 .01611128260704005 .02 18 61 112 0 63 64 58 59
 ?1 29 62 185 0 65 66 59 .004452281736100095 -.00588871739295995 0 18 65 105 0 6
7 51 68 62 ?1 29 66 184 0 69 70 62 .03737040539394905 .004230800608130815 0 18 6
9 102 0 71 72 73 66 ?1 29 70 183 0 51 74 66 .03737040539394915 .0262308006081308
 0 18 51 106 0 75 47 65 70 ?1 29 74 182 0 72 76 70 .004452281736100155 .01611128
260704005 0 18 72 103 0 77 68 69 74 ?1 29 76 181 0 68 78 74 -.003700000000000125
 -.00978015736976543 0 18 68 104 0 79 65 72 76 ?1 29 78 180 0 50 80 76 -.0037000
00000000125 -.00978015736976543 .02 18 50 108 0 81 52 47 78 ?1 29 80 179 0 64 82
 78 -.0037 .01221984263023456 .02 18 64 113 0 83 84 61 80 ?1 29 82 178 0 84 45 8
0 .0518204053939492 .0262308006081308 0 18 84 114 0 85 86 64 82 ?1 29 45 177 0 3
6 87 82 .0518204053939492 .004230800608130715 0 29 87 176 0 86 88 45 .0518204053
939492 .0262308006081308 .02 18 86 115 0 89 44 84 87 ?1 29 88 175 0 44 90 87 .05
18204053939492 .004230800608130715 .02 18 44 116 0 91 36 86 88 ?1 29 90 510 0 73
 92 88 .0001638570068477965 -.0001888144096907895 .02 18 73 438 0 93 69 94 90 ?1
 29 92 511 0 94 95 90 .03677032467836435 .01498080062116062 .02 18 94 439 0 96 7
3 97 92 ?1 29 95 513 0 97 98 92 -.0001967573683106725 .0001542288494914565 .02 1
8 97 442 0 38 94 99 95 ?1 29 98 514 0 99 100 95 .0367800408499978 .0154806148550
957 0 18 99 446 0 40 97 101 98 ?1 29 100 515 0 101 102 98 .03677032467836435 .01
498080062116062 0 18 101 445 0 103 99 104 100 ?1 29 102 516 0 104 0 100 .0001638
570068477965 -.0001888144096907895 0 18 104 444 0 31 101 0 102 ?1 17 31 0 29 27
 93 104 105 106 0 107 -15 255 29 469 0 31 108 0 17 93 0 29 31 30 73 25 10 0 105
 -17 105 0 109 96 107 73 31 106 0 110 +16 106 388 111 ?105 112 113 114 0 0 1 17
 107 0 109 105 103 104 115 116 0 32 -15 109 473 0 103 117 0 17 103 0 109 107 96
 101 118 113 0 119 -17 115 0 120 121 32 101 107 116 0 0 +16 116 408 122 ?115 123
 33 124 0 0 1 17 32 0 120 115 125 104 27 33 0 0 +15 120 358 0 32 17 0 17 125 0 1
20 32 121 11 39 126 0 0 +16 33 399 127 ?32 116 0 128 0 0 1 81 1 127 644 129 33 1
30 0 122 0 131 31 128 505 0 33 132 124 0 +0 0 0 0 0 1 1 0 0 25e-5 134 255 132 50
6 0 1 133 128 134 +135 136 134 124 504 0 116 128 137 0 +138 139 31 137 503 0 123
 124 140 0 +.0367704053939492 .0152308006081306 0 0 0 1 1 0 0 25e-5 136 255 138
 3 5 3 3 6 FFF1 141 142 143 135 255 139 1 0 45 255 15 141 .0001638570068475165 -
.000188814409691032 0 .00527675652178172 .004248264371532035 0 .0167262402935284
 .01165654697571572 0 .03002123335397915 .0149829796486887 0 .03677032467836435
 .01498080062116062 0 127 255 3 142 4 1 4 128 255 3 143 0 .502523330329586 1 16
 123 417 144 ?121 126 116 137 0 0 1 134 140 502 0 126 137 145 0 +146 147 16 126
 426 148 ?125 149 123 140 0 0 1 30 255 145 501 0 41 140 150 0 -.0367800408499978
 .0154806148550957 .022 0 0 -1 136 146 3 5 3 3 6 FFF1 151 152 153 135 147 1 0 45
 15 151 .0367800408499976 .0154806148550957 0 .02996573459243695 .01574344593555
955 0 .01564488577544245 .01442983197563154 0 .004106348984198975 .0056439143672
5474 0 -.0001967573683101245 .0001542288494921555 0 127 3 152 4 1 4 128 3 153 0
 .496423842635648 1 16 41 392 154 ?35 113 149 145 0 0 1 30 150 500 0 113 145 114
 0 -.03677032467836435 .01498080062116062 .022 0 0 -1 16 113 390 155 ?118 106 41
 150 0 0 1 30 114 499 0 106 150 156 0 -.0001638570068477965 -.000188814409690789
5 .022 0 0 -1 30 156 498 0 149 114 157 0 --.0001967573683106725 .000154228849491
4565 .022 0 0 -1 16 149 386 158 ?30 41 126 156 0 0 1 30 157 164 0 159 156 160 0
 +.004452281736100095 -.00588871739295995 .02 0 0 -1 16 159 37 161 ?162 163 164
 157 0 0 1 30 160 165 0 165 157 166 0 +.03737040539394905 .004230800608130815 .0
2 0 0 -1 16 165 55 167 ?168 169 170 160 0 0 1 30 166 166 0 171 160 172 0 +.03737
040539394915 .0262308006081308 .02 0 0 -1 16 171 43 173 ?174 175 163 166 0 0 1 3
0 172 167 0 176 166 177 0 +.004452281736100155 .01611128260704005 .02 0 0 -1 16
 176 64 178 ?179 180 181 172 0 0 1 31 177 168 0 163 172 182 0 +.0373704053939491
5 -.0323691993918692 0 0 0 1 1 0 0 .0586 16 163 40 183 ?77 171 159 177 0 0 1 30
 182 169 0 184 177 185 0 +.0373704053939491 .00423080060813057 0 1 3680860476773
42e-30 0 16 184 49 186 ?187 170 175 182 0 0 1 31 185 170 0 164 182 188 0 +.03737
040539394905 -.0543691993918692 0 0 0 -1 1 1224646799147352e-31 0 .0586 16 164 3
4 189 ?71 159 190 185 0 0 1 31 188 171 0 191 185 192 0 +.03737040539394915 -.032
3691993918692 .02 0 0 1 1 0 0 .0586 16 191 96 193 ?63 194 195 188 0 0 1 30 192 1
72 0 196 188 197 0 +.0373704053939491 .00423080060813057 .02 1 368086047677342e-
30 0 16 196 83 198 ?199 200 201 192 0 0 1 31 197 173 0 201 192 202 0 +.037370405
39394905 -.0543691993918692 .02 0 0 -1 1 1224646799147352e-31 0 .0586 16 201 80
 203 ?57 196 204 197 0 0 1 30 202 174 0 200 197 205 0 -.0518204053939493 .043 .0
2 -3729655473350135e-30 -1 0 16 200 86 206 ?207 195 196 202 0 0 1 30 205 195 0 2
08 202 209 0 --.0037 .0235 .02 -3752070439612755e-30 -1 0 16 208 24 210 ?211 190
 212 205 0 0 1 30 209 196 0 212 205 213 0 --.003700000000000125 -.00978015736976
543 .02 0 0 -1 16 212 21 214 ?215 208 112 209 0 0 1 30 213 197 0 112 209 216 0 +
-.0037 .0235 0 -3752070439612755e-30 -1 0 16 112 14 217 ?218 212 106 213 0 0 1 3
0 216 198 0 190 213 219 0 --.0037 .01221984263023456 .02 0 0 -1 16 190 31 220 ?2
21 164 208 216 0 0 1 31 219 199 0 194 216 222 0 +-.0124 .04093064199214715 .02 0
 0 -1 1 1224646799147352e-31 0 .03 16 194 99 223 ?83 224 191 219 0 0 1 31 222 20
0 0 204 219 225 0 +-.0124 .01893064199214715 .02 0 0 1 1 0 0 .03 16 204 77 226 ?
54 201 227 222 0 0 1 31 225 201 0 180 222 228 0 +-.0124 .04093064199214715 0 0 0
 -1 1 1224646799147352e-31 0 .03 16 180 67 229 ?49 227 176 225 0 0 1 31 228 202
 0 175 225 230 0 +-.0124 .01893064199214715 0 0 0 1 1 0 0 .03 16 175 46 231 ?67
 184 171 228 0 0 1 30 230 205 0 195 228 232 0 +.1292704053939492 .02623080060813
06 .02 -1 222739249363725e-29 0 16 195 93 233 ?60 191 200 230 0 0 1 30 232 206 0
 227 230 234 0 -.0518204053939493 .043 0 -3729655473350135e-30 -1 0 16 227 70 23
5 ?85 204 180 232 0 0 1 30 234 207 0 181 232 236 0 +.1292704053939492 .026230800
6081306 0 -1 222739249363725e-29 0 16 181 61 237 ?75 176 169 234 0 0 1 30 236 20
8 0 169 234 238 0 -.0518204053939492 .0262308006081308 .02 0 0 -1 16 169 58 239
 ?89 181 165 236 0 0 1 30 238 209 0 170 236 240 0 +.0518204053939492 .0042308006
08130575 .02 0 0 1 16 170 52 241 ?242 165 184 238 0 0 1 134 240 325 0 224 238 24
3 0 -244 245 16 224 323 246 ?247 248 194 240 0 0 1 31 243 329 0 248 240 21 0 -.0
367704053939492 .0152308006081306 .02 0 0 1 1 0 0 25e-5 136 244 3 5 3 3 6 FFF1 2
49 250 251 135 245 1 0 45 15 249 .0367800408499976 .0154806148550957 .02 .029965
73459243695 .01574344593555955 .02 .01564488577544245 .01442983197563154 .02 .00
4106348984198975 .00564391436725474 .02 -.0001967573683101245 .00015422884949215
55 .02 127 3 250 4 1 4 128 3 251 0 .496423842635648 1 16 248 327 252 ?253 26 224
 243 0 0 1 134 21 333 0 26 243 7 0 -254 255 16 26 331 256 ?110 10 248 21 0 0 1 1
36 254 3 5 3 3 6 FFF1 257 258 259 135 255 1 0 45 15 257 .0001638570068475165 -.0
00188814409691032 .02 .00527675652178172 .004248264371532035 .02 .01672624029352
84 .01165654697571572 .02 .03002123335397915 .0149829796486887 .02 .036770324678
36435 .01498080062116062 .02 127 3 258 4 1 4 128 3 259 0 .502523330329586 1 81 1
 256 610 129 26 260 0 24 252 261 17 110 0 262 25 253 73 96 26 0 0 +15 262 320 0
 110 263 0 17 25 0 262 247 110 97 93 10 0 0 +17 253 0 262 110 247 94 42 248 0 0
 +17 96 0 109 103 105 94 110 26 0 118 -17 118 0 264 42 119 94 103 113 0 253 +15
 264 477 0 40 265 0 17 42 0 264 40 118 28 253 248 0 247 -17 119 0 264 118 40 101
 121 123 0 115 -17 40 0 264 119 42 99 35 41 0 39 -17 121 0 120 125 115 99 119 12
3 0 0 +17 39 0 37 35 34 99 125 126 0 121 -15 37 481 0 34 266 0 17 34 0 37 39 38
 11 30 149 0 125 -17 38 0 37 34 35 97 247 224 0 30 -17 30 0 29 93 27 97 34 149 0
 25 +17 247 0 262 253 25 28 38 224 0 0 +14 255 266 478 267 ?0 265 37 5 268 +0 0
 0 265 23 81 1 267 608 12 266 269 0 270 0 271 14 265 474 270 ?266 117 264 5 272
 +0 0 266 117 23 67 255 268 495 0 266 0 272 0 +132 0 0 -1 .03998093116666365 13
 23 12 0 0 0 0 0 0 9 17 14 17 147 14 ?263 0 273 5 274 -0 0 263 0 23 81 1 14 595
 12 17 275 0 2 276 277 14 263 151 276 ?278 17 279 5 20 +0 0 278 17 23 15 273 150
 0 280 17 120 50 274 193 0 17 281 282 0 +-.0124 .01893064199214715 0 0 0 1 1 0 0
 51 255 281 192 0 283 284 274 0 +-.0124 .04093064199214715 .02 0 0 -1 .03 -1 0 0
 50 282 194 0 278 274 20 0 +-.0037 .0235 0 -1 3752070439612755e-30 0 -3752070439
612755e-30 -1 0 14 278 118 285 ?286 263 287 5 282 +0 0 286 263 23 50 20 203 0 26
3 282 6 0 +-.0124 .01893064199214715 .02 0 0 1 1 0 0 81 1 285 597 12 278 288 0 2
76 289 290 14 286 123 289 ?291 278 292 5 293 -0 0 291 278 23 15 287 122 0 218 27
8 0 17 218 0 287 215 294 68 280 112 0 0 +17 215 0 287 211 218 50 79 212 0 0 +17
 294 0 287 218 211 47 221 190 0 0 -17 280 0 273 295 296 47 218 112 0 294 -17 295
 0 273 297 280 72 49 180 0 0 -17 296 0 273 280 298 68 67 175 0 218 -17 298 0 273
 296 299 65 71 164 0 0 -17 67 0 300 301 79 65 296 175 0 162 +15 300 134 0 79 302
 0 17 301 0 300 303 67 52 162 159 0 304 -17 79 0 300 67 303 68 215 212 0 296 -17
 162 0 292 71 304 65 301 159 0 298 +15 292 126 0 71 286 0 17 71 0 292 305 162 69
 298 164 0 168 +17 304 0 292 162 305 52 57 201 0 0 -17 305 0 292 304 71 55 168 1
65 0 306 -17 57 0 279 199 54 55 304 201 0 305 +15 279 154 0 81 263 262 17 199 0
 279 207 57 44 306 196 0 242 +17 54 0 279 57 81 52 303 204 0 301 +17 81 0 279 54
 83 50 211 208 0 303 -17 303 0 300 79 301 50 54 204 0 215 -17 83 0 279 81 63 64
 307 194 0 221 +17 211 0 287 294 215 64 81 208 0 0 +17 63 0 279 83 60 61 308 191
 0 309 +17 307 0 310 179 221 61 83 194 0 0 -17 221 0 310 307 49 64 294 190 0 211
 +15 310 146 0 221 283 0 17 49 0 310 221 179 47 295 180 0 280 +17 179 0 310 49 3
07 72 309 176 0 295 +17 309 0 311 308 77 61 179 176 0 307 -15 311 130 0 77 291 0
 17 308 0 311 174 309 58 63 191 0 0 -17 77 0 311 309 174 72 297 163 0 179 +17 17
4 0 311 77 308 51 312 171 0 297 +17 297 0 273 313 295 51 77 163 0 0 -17 313 0 27
3 314 297 84 75 181 0 315 -17 314 0 273 299 313 36 85 227 0 0 -17 75 0 316 312 3
15 51 313 181 0 174 +17 315 0 316 75 317 84 89 169 0 0 -15 316 142 0 317 318 0 1
7 317 0 316 315 312 86 60 195 0 0 -17 89 0 319 91 85 86 315 169 0 207 +15 319 15
9 0 85 19 0 17 91 0 319 43 89 44 207 200 0 199 -17 85 0 319 89 43 84 314 227 0 3
13 +17 207 0 279 60 199 86 91 200 0 317 +17 60 0 279 63 207 58 317 195 0 312 +17
 312 0 316 317 75 58 174 171 0 308 -17 43 0 319 85 91 36 242 170 0 187 -17 242 0
 320 306 187 44 43 170 0 0 +17 187 0 320 242 168 36 299 184 0 314 +15 320 138 0
 187 321 0 17 168 0 320 187 306 69 305 165 0 299 +17 299 0 273 298 314 69 187 18
4 0 0 -17 306 0 320 168 242 55 199 196 0 0 -14 321 135 322 ?318 302 320 5 323 -0
 0 318 302 23 81 1 322 601 12 321 324 0 325 326 327 14 318 139 326 ?283 321 316
 5 328 -0 0 283 321 23 14 302 131 325 ?321 291 300 5 284 -0 0 321 291 23 50 323
 161 0 321 293 328 0 +.0373704053939491 .00423080060813057 .02 -368086047677342e
-30 1 0 -1 -368086047677342e-30 0 51 293 160 0 286 329 323 0 +.03737040539394905
 -.0543691993918692 .02 0 0 -1 .0586 -1 0 0 50 328 162 0 318 323 330 0 +.1292704
053939492 .0262308006081306 .02 -222739249363725e-29 -1 0 1 -222739249363725e-29
 0 51 330 163 0 291 328 284 0 -.03737040539394915 -.0323691993918692 .02 0 0 -1
 .0586 -1 0 0 14 291 127 331 ?302 286 311 5 330 -0 0 302 286 23 51 284 191 0 302
 330 281 0 --.0124 .01893064199214715 .02 0 0 -1 .03 -1 0 0 81 1 331 599 12 291
 332 0 289 325 333 80 7 CCCCCDI12 legal_owners0 17 1 lCZ1 12 334 335 8038 0 0 0
 0 0 0 0 0 0 TTTTTTTTTTTTTFTFT10 81 1 332 583 129 291 336 331 337 338 339 81 1 2
89 598 12 286 337 0 285 331 340 81 1 325 600 12 302 338 0 331 322 341 98 255 4 3
33 80 69 82 50 81 1 338 584 129 302 342 325 332 324 343 98 4 341 80 69 82 49 80
 1 129 0 344 8001 0 0 0 0 3 5 0 0 0 FFFFTFTFFFFFFFFFF2 81 1 342 299 345 302 0 33
8 346 347 348 81 1 324 585 129 321 346 322 338 349 350 83 255 3 343 .61176470588
2353 .658823529411765 .670588235294118 81 1 346 297 345 321 0 324 336 342 351 81
 1 349 586 129 318 352 326 324 353 354 83 3 350 .611764705882353 .65882352941176
5 .670588235294118 81 1 352 293 345 318 0 349 355 356 357 81 1 326 602 12 318 34
9 0 322 358 359 81 1 353 587 129 283 347 358 349 360 361 83 3 354 .6117647058823
53 .658823529411765 .670588235294118 14 283 143 358 ?19 318 310 5 281 -0 0 19 31
8 23 81 1 347 300 345 283 0 353 342 362 363 81 1 358 603 12 283 353 0 326 364 36
5 81 1 360 588 129 19 362 364 353 366 367 83 3 361 .611764705882353 .65882352941
1765 .670588235294118 14 19 155 364 ?108 283 319 5 6 -0 0 108 283 23 81 1 362 30
1 345 19 368 360 347 369 370 81 1 364 604 12 19 360 0 358 371 372 81 1 366 589 1
29 108 373 371 360 374 375 83 3 367 .611764705882353 .658823529411765 .670588235
294118 14 108 466 371 ?117 19 29 5 329 +0 0 117 19 23 81 1 373 570 345 108 0 366
 376 377 378 81 1 371 605 12 108 366 0 364 379 380 81 1 374 590 129 117 381 379
 366 382 383 83 3 375 .611764705882353 .658823529411765 .670588235294118 14 117
 470 379 ?265 108 109 5 384 +0 0 265 108 23 81 1 381 573 345 117 0 374 385 386 3
87 81 1 379 606 12 117 374 0 371 270 388 81 1 382 591 129 265 385 270 374 269 38
9 83 3 383 .611764705882353 .658823529411765 .670588235294118 81 1 385 572 345 2
65 0 382 377 381 390 81 1 270 607 12 265 382 0 379 267 391 81 1 269 592 129 266
 377 267 382 24 392 83 3 389 .611764705882353 .658823529411765 .670588235294118
 81 1 377 571 345 266 0 269 373 385 393 81 1 24 609 129 10 394 0 269 256 395 83
 3 392 .611764705882353 .658823529411765 .670588235294118 81 1 394 565 345 10 0
 24 130 260 396 83 3 395 .611764705882353 .658823529411765 .670588235294118 80 1
 345 397 398 9000 1 1 1 1 1 1 1 1 0 FFFFTFTFFFFFFFFFF3 81 1 130 564 345 33 0 127
 399 394 400 81 1 260 566 345 26 0 256 394 401 402 84 255 32 396 5f74ae15d9d524f
55a01b9147169557d81 1 401 567 345 123 0 144 260 403 404 84 32 402 733f5f04e7d3dd
6df38e25fd02d8d25a81 1 144 642 129 123 401 0 148 122 405 81 1 403 568 345 126 0
 148 401 376 406 84 32 404 5bfdb2a473d1cc677dc1a34ad63cfec181 1 148 641 129 126
 403 0 158 144 407 81 1 376 569 345 224 0 246 403 373 408 84 32 406 9277d5a6a1f9
8270a20d32c5663b9c7381 1 246 612 129 224 376 0 252 223 409 84 32 408 5567b4df7bd
46173ee872015eab6a91e81 1 252 611 129 248 399 0 256 246 410 81 1 223 613 129 194
 411 0 246 193 412 83 3 409 .611764705882353 .658823529411765 .670588235294118 8
1 1 411 286 345 194 0 223 413 414 415 81 1 193 614 129 191 416 0 223 233 417 83
 3 412 .611764705882353 .658823529411765 .670588235294118 81 1 416 269 345 191 0
 193 0 418 419 81 1 233 615 129 195 420 0 193 206 421 83 3 417 .611764705882353
 .658823529411765 .670588235294118 81 1 420 273 345 195 0 233 422 423 424 81 1 2
06 616 129 200 425 0 233 198 426 83 3 421 .611764705882353 .658823529411765 .670
588235294118 81 1 425 284 345 200 0 206 427 413 428 81 1 198 617 129 196 422 0 2
06 203 429 83 3 426 .611764705882353 .658823529411765 .670588235294118 81 1 422
 272 345 196 0 198 430 420 431 81 1 203 618 129 201 432 0 198 226 433 83 3 429 .
611764705882353 .658823529411765 .670588235294118 81 1 432 277 345 201 0 203 434
 435 436 81 1 226 619 129 204 437 0 203 235 438 83 3 433 .611764705882353 .65882
3529411765 .670588235294118 81 1 437 290 345 204 0 226 439 440 441 81 1 235 620
 129 227 442 0 226 229 443 83 3 438 .611764705882353 .658823529411765 .670588235
294118 81 1 442 288 345 227 0 235 414 439 444 81 1 229 621 129 180 439 0 235 178
 445 83 3 443 .611764705882353 .658823529411765 .670588235294118 81 1 439 289 34
5 180 0 229 442 437 446 81 1 178 622 129 176 447 0 229 237 448 83 3 445 .6117647
05882353 .658823529411765 .670588235294118 81 1 447 275 345 176 0 178 423 434 44
9 81 1 237 623 129 181 423 0 178 239 450 83 3 448 .611764705882353 .658823529411
765 .670588235294118 81 1 423 274 345 181 0 237 420 447 451 81 1 239 624 129 169
 427 0 237 167 452 83 3 450 .611764705882353 .658823529411765 .670588235294118 8
1 1 427 283 345 169 0 239 453 425 454 81 1 167 625 129 165 455 0 239 241 456 83
 3 452 .611764705882353 .658823529411765 .670588235294118 81 1 455 280 345 165 0
 167 457 458 459 81 1 241 626 129 170 413 0 167 186 460 83 3 456 .61176470588235
3 .658823529411765 .670588235294118 81 1 413 285 345 170 0 241 425 411 461 81 1
 186 627 129 184 457 0 241 231 462 83 3 460 .611764705882353 .658823529411765 .6
70588235294118 81 1 457 279 345 184 0 186 435 455 463 81 1 231 628 129 175 355 0
 186 173 464 83 3 462 .611764705882353 .658823529411765 .670588235294118 81 1 35
5 292 345 175 0 231 440 352 465 81 1 173 629 129 171 430 0 231 183 466 83 3 464
 .611764705882353 .658823529411765 .670588235294118 81 1 430 271 345 171 0 173 4
18 422 467 81 1 183 630 129 163 435 0 173 161 468 83 3 466 .611764705882353 .658
823529411765 .670588235294118 81 1 435 278 345 163 0 183 432 457 469 81 1 161 63
1 129 159 434 0 183 189 470 83 3 468 .611764705882353 .658823529411765 .67058823
5294118 81 1 434 276 345 159 0 161 447 432 471 81 1 189 632 129 164 418 0 161 22
0 472 83 3 470 .611764705882353 .658823529411765 .670588235294118 81 1 418 270 3
45 164 0 189 416 430 473 81 1 220 633 129 190 414 0 189 210 474 83 3 472 .611764
705882353 .658823529411765 .670588235294118 81 1 414 287 345 190 0 220 411 442 4
75 81 1 210 634 129 208 440 0 220 214 476 83 3 474 .611764705882353 .65882352941
1765 .670588235294118 81 1 440 291 345 208 0 210 437 355 477 81 1 214 635 129 21
2 458 0 210 217 478 83 3 476 .611764705882353 .658823529411765 .670588235294118
 81 1 458 281 345 212 0 214 455 453 479 81 1 217 636 129 112 453 0 214 111 480 8
3 3 478 .611764705882353 .658823529411765 .670588235294118 81 1 453 282 345 112
 0 217 458 427 481 81 1 111 637 129 106 482 0 217 155 483 83 3 480 .611764705882
353 .658823529411765 .670588235294118 81 1 482 558 345 106 0 111 369 484 485 81
 1 155 638 129 113 486 0 111 154 487 83 3 483 .611764705882353 .658823529411765
 .670588235294118 81 1 486 560 345 113 0 155 484 488 489 81 1 154 639 129 41 484
 0 155 158 490 83 3 487 .611764705882353 .658823529411765 .670588235294118 81 1
 484 559 345 41 0 154 482 486 491 81 1 158 640 129 149 488 0 154 148 492 83 3 49
0 .611764705882353 .658823529411765 .670588235294118 81 1 488 561 345 149 0 158
 486 493 494 83 3 492 .611764705882353 .658823529411765 .670588235294118 81 1 49
3 562 345 116 0 122 488 399 495 84 32 494 2b3f37e7b2d78f006da48bca6b62a2f581 1 1
22 643 129 116 493 0 144 127 496 81 1 399 563 345 248 0 252 493 130 497 84 32 49
5 37f2a2ca86c84739c72a27b7d1f0247c84 32 497 92394658914260fc7f478b9af2c0e2e383 3
 496 .611764705882353 .658823529411765 .670588235294118 84 32 491 17ef082fbbb11c
d6767e24215ca9700e84 32 489 840192e8689d12d23ad50c8ef7e7e00281 1 369 302 345 278
 498 288 362 482 499 84 32 485 c7a6ef4ec916a569a8ce22c5574a059681 1 498 121 500
 278 0 369 0 368 501 81 1 288 581 129 278 369 285 502 337 503 84 32 499 3c32fbb3
6f4807e117ba707ba62f4a6881 1 502 580 129 263 386 276 275 288 504 81 1 337 582 12
9 286 356 289 288 332 505 83 3 503 .611764705882353 .658823529411765 .6705882352
94118 81 1 356 294 345 286 0 337 352 336 506 83 3 505 .611764705882353 .65882352
9411765 .670588235294118 81 1 336 296 345 291 0 332 356 346 507 84 32 506 4db1ee
c6144d3793aa57ec693c8b6b3a84 32 507 e233db989137ebcb1128a54abe26d50081 1 386 574
 345 263 0 502 381 508 509 81 1 276 596 12 263 502 0 14 285 510 81 1 275 579 129
 17 508 14 0 502 511 83 3 504 .611764705882353 .658823529411765 .670588235294118
 81 1 508 575 345 17 0 275 386 0 512 83 3 511 .611764705882353 .658823529411765
 .670588235294118 84 32 512 a517ee60686990f4658d355f0d49e89998 2 510 85 80 84 32
 509 73edbd213984b09130b86a233e6fc4bf80 1 500 513 514 9000 0 0 0 0 3 5 0 0 0 FFF
FTFTFFFFFFFFFF1 81 1 368 156 500 19 0 362 498 0 515 82 255 1 501 40712 82 1 515
 40635 79 255 23 514 UGS/Original_entity_tag84 32 481 de70a8ec98e0779d5044e807fe
bbbc1c84 32 479 247bce06916ecd591db9624f8bf83b7484 32 477 c26a7bd3196b159e7fb365
1543f3adcb84 32 475 a490d41f62290dc4a8679499b92136ed84 32 473 4fc790cb95097772ac
834dadbbe096ea84 32 471 d1c051f43e784d7f64042f7aeac1c0f084 32 469 ed9012a36ecc54
279e6a7e107972ef3584 32 467 0de7daf87c565d392c84f2462e0a920184 32 465 78a9ed4d90
ed0a1f79bf605f188ac8ef84 32 463 1e6bbfc663216cdcfddfb98c59d0ae0e84 32 461 7e4f56
4c8ffffa095cab447a274c3ab584 32 459 43de9db6eb987bb85a0b590762592aa084 32 454 42
e9749782d75983a855dd64fe82a11984 32 451 55413f5dfbfc1620e6d893816311d2c484 32 44
9 54e1ecfe2ed07e4e25ce5f48b20443ed84 32 446 514d6c3692ec33ce424d72d4663aeb4284 3
2 444 3156f5e77cfa5d2bc8b00c4149735f8984 32 441 32cbde54237c415140feab7d88e71d5b
84 32 436 3ff774d8793357277d7613effb4f98f084 32 431 ba473708895dbe1dae71aeea5b23
a4a184 32 428 537fb72d85dd4bada2c9eee947cd5d0784 32 424 07674868a87780425282beab
aafb612984 32 419 9023b9ac5b993996a6d2cc51aa5f871084 32 415 870898cf620358d63b4f
82643c26542a83 3 410 .611764705882353 .658823529411765 .670588235294118 83 3 407
 .611764705882353 .658823529411765 .670588235294118 83 3 405 .611764705882353 .6
58823529411765 .670588235294118 84 32 400 69da49e86a0ebb30251e73386b8f668a79 15
 398 UGS/ObjectState84 32 393 f5bda1d6b25731a6a2356e26dded485998 5 391 70 65 67
 69 83 84 32 390 47b636badf51769040e0d9a99b140ee098 5 388 70 65 67 69 83 84 32 3
87 3c34bb06dab991d418c526f2869ac9c067 384 493 0 117 272 329 0 +133 0 0 -1 .04932
25486485762 51 272 494 0 265 268 384 0 -.0367704053939492 .0152308006081306 .022
 0 0 -1 25e-5 -1 0 0 51 329 492 0 108 384 293 0 -0 0 .022 0 0 -1 25e-5 -1 0 0 13
4 133 508 0 1 0 132 516 +517 518 141 255 516 384 516 516 133 136 517 3 5 3 3 6 F
FF1 519 520 521 135 518 1 0 45 15 519 .0001638570068475165 -.000188814409691032
 .022 .00527675652178172 .004248264371532035 .022 .0167262402935284 .01165654697
571572 .022 .03002123335397915 .0149829796486887 .022 .03677032467836435 .014980
80062116062 .022 127 3 520 4 1 4 128 3 521 0 .502523330329586 1 98 5 380 70 65 6
7 69 83 84 32 378 df9e28e5d5d71321cf7e7b1cd35c16bb98 6 372 79 85 84 76 69 84 84
 32 370 03730405fc5d0b8292f798473a80277e98 4 365 80 69 82 50 84 32 363 2b113f910
2a9accaed71f736480136ed98 4 359 80 69 82 50 84 32 357 43ebbb49bac5495e7d89439e27
91469d84 32 351 d17a980db38aa8b87533b3b66c3b10e784 32 348 e254cee5490e03eedd552e
42b1510aa679 15 344 SDL/TYSA_COLOUR98 4 340 80 69 82 49 83 3 339 .61176470588235
3 .658823529411765 .670588235294118 79 14 335 SDL/TYSA_UNAME98 4 327 80 69 82 49
 98 5 290 73 78 76 69 84 98 4 277 68 79 87 78 98 5 271 70 65 67 69 83 83 3 261 .
611764705882353 .658823529411765 .670588235294118 141 134 268 134 134 132 136 13
5 3 5 3 3 6 FFF1 522 523 524 135 136 1 0 45 15 522 .0367800408499976 .0154806148
550957 .022 .02996573459243695 .01574344593555955 .022 .01564488577544245 .01442
983197563154 .022 .004106348984198975 .00564391436725474 .022 -.0001967573683101
245 .0001542288494921555 .022 127 3 523 4 1 4 128 3 524 0 .496423842635648 1 83
 3 131 .611764705882353 .658823529411765 .670588235294118 19 18 1 0 1 0 9 5 0 S0
 74 4 CI16 index_map_offset0 0 1 dCCZ20 16 8 0 0 525 526 368 508 527 127 13 267
 0 0 0 0 0 0 0 0 0 0 0 0 81 1 525 4 528 1 0 526 0 0 529 81 2 526 5 530 1 525 527
 0 0 531 532 81 1 527 578 533 1 526 13 0 0 534 81 1 13 593 535 1 527 2 0 0 536 8
0 1 535 129 537 8040 0 0 0 0 3 5 0 0 0 TTTFFFFFFFFFFFFFF2 83 3 536 .611764705882
353 .658823529411765 .670588235294118 79 17 537 SDL/TYSA_COLOUR_280 1 533 345 53
8 9000 0 0 0 0 3 5 0 0 0 FFTFFFFFFFFFFFFFF1 82 1 534 15 79 7 538 body_id80 2 530
 539 540 8004 0 0 0 0 3 5 0 0 0 FFTFFFFFFFFFFFFFF2 3 83 1 531 7830.64 84 8 532 K
g/Cu M 79 16 540 SDL/TYSA_DENSITY80 1 528 541 542 8051 0 0 0 0 3 5 0 0 0 TFTFFFF
FFFFFFFFFF1 82 1 529 0 79 21 542 SDL/TYSA_SCALE_FACTOR98 5 15 66 76 65 68 69 1 0
 
