**ABCDEFGHIJKLMNOPQRSTUVWXYZabcdefghijklmnopqrstuvwxyz**************************
**PARASOLID !"#$%&'()*+,-./:;<=>?@[\]^_`{|}~0123456789**************************
**PART1;
MC=^_;
MC_MODEL=authenticamd family 15 model 4 stepping 1, amd ryzen 7 6800h with radeon graphics         ;
MC_ID=^_;
OS=windows nt (x64);
OS_RELEASE=6.3 windows 11 home china (build 26100) ;
FRU=mdc_ugii_v7.0_djl_can_vrh;
APPL=unigraphics;
SITE=unknown;
USER=^_;
FORMAT=text;
GUISE=transmit;
KEY=head;
FILE=^_;
DATE=7-mar-2025;
**PART2;
SCH=SCH_3601193_36001;
USFLD_SIZE=0;
**PART3;
**END_OF_HEADER*****************************************************************
T51 : TRANSMIT FILE created by modeller version 360119323 SCH_3601193_36001_1300
6231 0 12 36 CCCI7 lattice222 0 CCCI4 mesh1006 0 I8 polyline1008 0 CCCCCCCDI5 ow
ner1040 0 CCCI16 boundary_lattice222 0 CCCI13 boundary_mesh1006 0 I17 boundary_p
olyline1008 0 CCCA16 index_map_offset0 0 1 dA9 index_map82 0 A17 node_id_index_m
ap82 0 A20 schema_embedding_map82 0 A5 child12 0 A14 lowest_node_id0 0 1 dA16 me
sh_offset_data206 0 Z1 852 2 3 0 0 0 0 0 0 0 1e3 1e-8 0 4 0 1 0 1 1 5 0 6 7 8 0
 0 9 10 11 0 0 0 0 0 0 0 81 255 1 2 826 12 1 13 0 0 14 15 70 11 CI9 list_type0 0
 1 uI10 notransmit0 0 1 lCCCDCCDI12 finger_index0 0 1 dI12 finger_block1012 0 CZ
3 0 4 T1 0 0 8 20 1 16 16 13 255 5 199 0 1 0 17 0 0 18 0 50 255 6 188 0 19 20 0
 0 +-.0296 .01093064199214716 .02 1 -3784851220313035e-30 0 3784851220313035e-30
 1 0 30 255 7 198 0 21 22 0 0 +-.0296 .01093064199214716 .02 0 0 -1 29 255 8 706
 0 23 24 0 -.003700000000000125 -.00978015736976543 .02 19 9 CCCCCCI5 frame230 0
 CA5 owner12 0 Z9 1 0 1 18 0 25 0 V0 16 255 10 385 26 ?27 0 28 29 0 0 1 18 255 1
1 490 0 30 0 23 24 ?1 17 255 30 0 31 27 32 11 33 34 0 35 -18 23 485 0 27 11 36 8
 ?1 29 24 705 0 11 37 8 -.003700000000000045 .01221984263023456 .02 29 37 690 0
 36 38 24 -.003700000000000125 -.00978015736976543 0 18 36 487 0 39 23 40 37 ?1
 29 38 639 0 40 41 37 -.0037 .01221984263023456 0 18 40 638 0 32 36 42 38 ?1 29
 41 139 0 43 44 38 -.0124 .01093064199214716 0 18 43 108 0 45 46 47 41 ?1 29 44
 146 0 47 48 41 -.0124 -.01106935800785282 0 18 47 122 0 49 43 50 44 ?1 29 48 14
7 0 50 51 44 -.0296 -.01106935800785282 0 18 50 124 0 52 47 53 48 ?1 29 51 148 0
 53 54 48 -.0296 .01093064199214716 0 18 53 126 0 55 50 0 51 ?1 29 54 47 0 42 56
 51 -.0124 .01093064199214716 .02 18 42 45 0 57 40 58 54 ?1 29 56 12 0 58 59 54
 -.0124 -.01106935800785282 .02 18 58 10 0 60 42 61 56 ?1 29 59 7 0 61 62 56 -.0
296 -.01106935800785282 .02 18 61 5 0 63 58 46 59 ?1 29 62 4 0 46 0 59 -.0296 .0
1093064199214716 .02 18 46 2 0 64 61 43 62 ?1 17 64 0 65 66 57 46 67 68 0 69 +15
 255 65 53 0 70 17 0 17 66 0 65 60 64 61 71 72 0 73 +17 57 0 65 64 35 42 74 75 0
 76 +17 67 0 77 78 69 42 64 68 0 0 -16 68 50 79 ?64 21 75 80 0 0 1 17 69 0 77 67
 55 46 81 21 0 71 -15 77 159 0 55 82 0 17 55 0 77 69 78 53 83 84 0 81 +17 81 0 8
5 86 71 53 69 21 0 87 +16 21 158 88 ?81 89 68 7 0 0 1 17 71 0 85 81 73 46 66 72
 0 0 -15 85 177 0 86 19 0 17 73 0 85 71 86 61 90 91 0 0 -16 72 6 92 ?66 93 84 94
 0 0 1 81 1 92 847 95 72 96 0 97 98 99 16 93 11 97 ?60 100 72 101 0 0 1 16 84 88
 98 ?55 72 102 103 0 0 1 30 94 9 0 72 104 101 0 +-.0296 .01093064199214716 .02 -
3784851220313035e-30 -1 0 30 104 600 0 28 105 94 0 +-.003700000000000125 -.00978
015736976543 .02 0 0 -1 30 101 14 0 93 94 106 0 +-.0296 -.01106935800785282 .02
 1 0 0 31 255 106 19 0 100 101 107 0 +-.0124 .01893064199214715 .02 0 0 1 1 0 0
 .03 16 100 16 108 ?70 75 93 106 0 0 1 31 107 49 0 75 106 80 0 +-.0124 .04093064
199214715 .02 0 0 -1 1 1224646799147352e-31 0 .03 16 75 376 109 ?57 68 100 107 0
 0 1 30 80 52 0 68 107 110 0 +-.0124 .01093064199214716 .02 -1 0 0 30 110 138 0
 111 80 112 0 +-.0296 .01093064199214716 0 -3784851220313035e-30 -1 0 16 111 106
 113 ?86 114 0 110 0 0 1 30 112 137 0 114 110 115 0 +-.0296 -.01106935800785282
 0 1 0 0 16 114 104 116 ?49 117 111 112 0 0 1 31 115 136 0 117 112 118 0 +-.0124
 .01893064199214715 0 0 0 1 1 0 0 .03 16 117 102 119 ?120 102 114 115 0 0 1 31 1
18 130 0 102 115 103 0 +-.0124 .04093064199214715 0 0 0 -1 1 1224646799147352e-3
1 0 .03 16 102 331 121 ?45 84 117 118 0 0 1 30 103 129 0 84 118 122 0 +-.0124 .0
1093064199214716 0 -1 0 0 30 122 189 0 89 103 123 0 +-.0124 .01093064199214716 .
02 0 0 -1 16 89 149 124 ?78 125 21 122 0 0 1 30 123 196 0 125 122 22 0 +-.0124 -
.01106935800785282 .02 0 0 -1 16 125 156 126 ?127 91 89 123 0 0 1 30 22 197 0 91
 123 7 0 +-.0296 -.01106935800785282 .02 0 0 -1 16 91 157 128 ?90 34 125 22 0 0
 1 81 1 128 839 95 91 129 0 130 126 131 17 90 0 132 49 63 50 73 91 0 86 +16 34 3
90 130 ?33 133 91 105 0 0 1 81 1 130 838 95 34 134 0 135 128 136 17 33 0 137 45
 74 40 30 34 0 0 +16 133 355 135 ?32 28 34 138 0 0 1 30 105 601 0 34 138 104 0 +
-.0037 .01221984263023456 .02 0 0 -1 30 138 609 0 133 29 105 0 --.0037 .0235 0 -
3752070439612755e-30 -1 0 30 29 611 0 10 0 138 0 +-.0037 .0235 .02 -375207043961
2755e-30 -1 0 81 1 135 837 95 133 139 0 140 130 141 17 32 0 31 30 39 40 142 133
 0 143 +16 28 405 140 ?39 10 133 104 0 0 1 81 1 140 836 95 28 144 0 26 135 145 1
7 39 0 31 32 27 36 146 28 0 120 +15 31 497 0 32 147 0 17 27 0 31 39 30 23 35 10
 0 70 +17 146 0 148 149 120 23 39 28 0 0 -17 120 0 148 146 127 36 150 117 0 142
 +15 148 173 0 120 151 0 17 127 0 148 120 149 47 152 125 0 150 +17 150 0 153 52
 142 47 120 117 0 0 -17 142 0 153 150 143 36 32 133 0 0 -15 153 87 0 143 154 0 1
7 143 0 153 142 83 40 45 102 0 33 -17 83 0 153 143 87 43 55 84 0 0 -17 45 0 137
 76 33 43 143 102 0 78 +15 137 161 0 74 155 0 17 76 0 137 74 45 42 78 89 0 67 -1
7 78 0 77 55 67 43 76 89 0 83 +17 74 0 137 33 76 11 57 75 0 0 -14 255 155 162 15
6 ?82 151 137 5 157 -0 0 82 151 25 81 1 156 831 12 155 158 0 159 160 161 14 82 1
60 160 ?154 155 77 5 162 -0 0 154 155 25 14 151 174 159 ?155 163 148 5 164 -0 0
 155 163 25 51 255 157 180 0 155 162 164 0 +-.0124 .04093064199214715 .02 0 0 -1
 .03 -1 0 0 13 25 3 0 0 0 0 0 0 9 17 14 17 387 14 ?19 0 65 5 165 +0 0 19 0 25 81
 1 14 827 12 17 166 0 2 167 168 14 19 178 167 ?163 17 85 5 6 -0 0 163 17 25 50 1
65 55 0 17 169 170 0 +-.0124 .01893064199214715 .02 0 0 1 1 0 0 50 169 599 0 147
 0 165 0 +-.0037 .0235 0 -1 3752070439612755e-30 0 -3752070439612755e-30 -1 0 50
 170 128 0 154 165 162 0 +-.0124 .01893064199214715 0 0 0 1 1 0 0 14 154 84 171
 ?147 82 153 5 170 -0 0 147 82 25 50 162 179 0 82 170 157 0 +-.0124 .01093064199
214716 .02 0 -1 0 0 0 -1 81 1 171 833 12 154 172 0 160 173 174 14 147 505 173 ?0
 154 31 5 169 -0 0 0 154 25 81 1 173 834 12 147 175 0 171 0 176 80 7 CCCCCDI12 l
egal_owners0 17 1 lCZ1 12 177 178 8038 0 0 0 0 0 0 0 0 0 TTTTTTTTTTTTTFTFT10 81
 1 175 824 95 147 179 173 172 26 180 98 255 8 176 79 85 84 32 72 69 65 68 80 1 9
5 0 181 8001 0 0 0 0 3 5 0 0 0 FFFFTFTFFFFFFFFFF2 81 1 179 806 182 147 183 175 1
84 185 186 81 1 172 823 95 154 187 171 188 175 189 81 1 26 835 95 10 190 0 175 1
40 191 83 255 3 180 .611764705882353 .658823529411765 .670588235294118 81 1 190
 802 182 10 0 26 144 139 192 83 3 191 .611764705882353 .658823529411765 .6705882
35294118 80 1 182 193 194 9000 1 1 1 1 1 1 1 1 0 FFFFTFTFFFFFFFFFF3 81 1 144 801
 182 28 0 140 134 190 195 81 1 139 803 182 133 0 135 190 196 197 84 255 32 192 e
828805b383c30959c38381d73f31cca81 1 196 804 182 155 0 158 139 184 198 84 32 197
 d530ccd1315b767cdc3b2ca526456d5981 1 158 821 95 155 196 156 199 188 200 81 1 18
4 805 182 151 0 199 196 179 201 84 32 198 b00a88139a84e748a2826f961e9ae4ea81 1 1
99 820 95 151 184 159 202 158 203 84 32 201 c7cb2f367c34db7402f19736f669998381 1
 159 830 12 151 199 0 204 156 205 81 1 202 819 95 163 206 204 207 199 208 83 3 2
03 .611764705882353 .658823529411765 .670588235294118 14 163 176 204 ?151 19 132
 5 20 -0 0 151 19 25 81 1 206 267 182 163 0 202 209 210 211 81 1 204 829 12 163
 202 0 167 159 212 81 1 207 818 95 19 209 167 166 202 213 83 3 208 .611764705882
353 .658823529411765 .670588235294118 81 1 209 263 182 19 0 207 214 206 215 81 1
 167 828 12 19 207 0 14 204 216 81 1 166 817 95 17 185 14 0 207 217 83 3 213 .61
1764705882353 .658823529411765 .670588235294118 81 1 185 807 182 17 0 166 179 18
7 218 83 3 217 .611764705882353 .658823529411765 .670588235294118 81 1 187 808 1
82 154 0 172 185 0 219 84 32 218 adad487c9d53f77ce467a0d96293b6fc84 32 219 faa1c
d019d0f8146ad3e1bb90552b2e398 7 216 73 78 32 72 69 65 68 81 1 214 258 182 89 0 1
24 220 209 221 84 32 215 77307ff9ac897eaaf4c75b5b36be68d081 1 124 841 95 89 214
 0 126 88 222 81 1 220 256 182 84 0 98 223 214 224 84 32 221 b8485ef39daa8e93821
4e4131b8c4c2581 1 98 848 95 84 220 0 92 121 225 81 1 223 255 182 114 0 116 129 2
20 226 84 32 224 77918ade0fa641cb31a9b7402a522aa981 1 116 851 95 114 223 0 119 1
13 227 81 1 129 253 182 91 0 128 228 223 229 84 32 226 00754207e2fd32caedf7b621c
962663481 1 228 251 182 111 0 113 96 129 230 84 32 229 2d99caac80f2de927f3357edf
16689b081 1 113 852 95 111 228 0 116 0 231 81 1 96 245 182 72 0 92 232 228 233 8
4 32 230 cec9da00194a108086ba27957fb5634481 1 232 242 182 68 0 79 234 96 235 84
 32 233 322cb16f67429a4ea28e5934c98f20bc81 1 79 843 95 68 232 0 88 109 236 81 1
 234 237 182 93 0 97 237 232 238 84 32 235 f340956c7879e141cdda1dcd5050618d81 1
 97 846 95 93 234 0 108 92 239 81 1 237 235 182 21 0 88 240 234 241 84 32 238 16
76fa483a298246eb0e2747335b347181 1 88 842 95 21 237 0 124 79 242 81 1 240 232 18
2 125 0 126 0 237 243 84 32 241 926ec0e925e256f19be477950c0ee3e681 1 126 840 95
 125 240 0 128 124 244 84 32 243 7cb0eaadf82bf044c1bf62d6573b78a983 3 244 .61176
4705882353 .658823529411765 .670588235294118 83 3 242 .611764705882353 .65882352
9411765 .670588235294118 81 1 108 845 95 100 245 0 109 97 246 83 3 239 .61176470
5882353 .658823529411765 .670588235294118 81 1 245 799 182 100 0 108 247 134 248
 81 1 109 844 95 75 249 0 79 108 250 83 3 246 .611764705882353 .658823529411765
 .670588235294118 81 1 249 797 182 75 0 109 251 247 252 83 3 250 .61176470588235
3 .658823529411765 .670588235294118 81 1 251 796 182 102 0 121 210 249 253 81 1
 247 798 182 117 0 119 249 245 254 84 32 252 60976b08f2dd8c191d647815c6497c9181
 1 119 850 95 117 247 0 121 116 255 84 32 254 1a84ab6681837727a227b26bb8c9443281
 1 121 849 95 102 251 0 98 119 256 83 3 255 .611764705882353 .658823529411765 .6
70588235294118 83 3 256 .611764705882353 .658823529411765 .670588235294118 81 1
 210 273 182 82 0 188 206 251 257 84 32 253 523b070cb1055a6c112d8d5eebced71081 1
 188 822 95 82 210 160 158 172 258 84 32 257 70e30f2c99d3eede770f537918870d2081
 1 160 832 12 82 188 0 156 171 259 83 3 258 .611764705882353 .658823529411765 .6
70588235294118 98 4 259 80 69 82 50 81 1 134 800 182 34 0 130 245 144 260 84 32
 248 bcb2e23d141f024a24f446a93dec9c2884 32 260 30e036e86e5b3fafe96d48ee6fb96c328
3 3 236 .611764705882353 .658823529411765 .670588235294118 83 3 231 .61176470588
2353 .658823529411765 .670588235294118 83 3 227 .611764705882353 .65882352941176
5 .670588235294118 83 3 225 .611764705882353 .658823529411765 .670588235294118 8
3 3 222 .611764705882353 .658823529411765 .670588235294118 98 4 212 80 69 82 49
 84 32 211 95be19bd528feb897d3b835515dc8f2715 132 175 0 49 163 0 50 20 187 0 163
 164 6 0 +-.0296 -.01106935800785282 .02 0 1 0 0 0 1 51 164 186 0 151 157 20 0 -
-.0124 .01893064199214715 .02 0 0 -1 .03 -1 0 0 17 49 0 132 152 90 47 52 114 0 1
27 +17 152 0 132 63 49 58 127 125 0 149 -17 52 0 153 87 150 50 49 114 0 90 -17 8
7 0 153 83 52 53 86 111 0 0 -17 86 0 85 73 81 50 87 111 0 0 +17 63 0 132 90 152
 61 60 93 0 66 -17 149 0 148 127 146 58 70 100 0 0 -17 70 0 65 35 60 23 149 100
 0 146 +17 35 0 65 57 70 11 27 10 0 74 -17 60 0 65 70 66 58 63 93 0 152 +98 4 20
5 80 69 82 49 83 3 200 .611764705882353 .658823529411765 .670588235294118 84 32
 195 b3b50a5d3c5b5b08beaa5160ff7a8c6079 255 15 194 UGS/ObjectState83 3 189 .6117
64705882353 .658823529411765 .670588235294118 81 1 183 689 261 147 0 179 0 0 262
 84 32 186 1001aa2ce0d2b5da286f6e30a89ea6c080 1 261 263 264 9000 0 0 0 0 3 5 0 0
 0 FFFFTFTFFFFFFFFFF1 82 255 1 262 40712 79 23 264 UGS/Original_entity_tag79 15
 181 SDL/TYSA_COLOUR79 14 178 SDL/TYSA_UNAME98 4 174 68 79 87 78 98 2 168 85 80
 98 4 161 80 69 82 50 83 3 145 .611764705882353 .658823529411765 .67058823529411
8 83 3 141 .611764705882353 .658823529411765 .670588235294118 83 3 136 .61176470
5882353 .658823529411765 .670588235294118 83 3 131 .611764705882353 .65882352941
1765 .670588235294118 83 3 99 .611764705882353 .658823529411765 .670588235294118
 19 18 200 0 1 0 9 5 0 S0 74 4 CI16 index_map_offset0 0 1 dCCZ20 16 8 0 0 265 26
6 187 183 267 113 13 173 0 0 0 0 0 0 0 0 0 0 0 0 81 2 265 229 268 1 0 266 0 0 26
9 270 81 1 266 230 271 1 265 267 0 0 272 81 1 267 816 273 1 266 13 0 0 274 81 1
 13 825 275 1 267 2 0 0 276 80 1 275 95 277 8040 0 0 0 0 3 5 0 0 0 TTTFFFFFFFFFF
FFFF2 83 3 276 .611764705882353 .658823529411765 .670588235294118 79 17 277 SDL/
TYSA_COLOUR_280 1 273 182 278 9000 0 0 0 0 3 5 0 0 0 FFTFFFFFFFFFFFFFF1 82 1 274
 14 79 7 278 body_id80 1 271 279 280 8051 0 0 0 0 3 5 0 0 0 TFTFFFFFFFFFFFFFF1 8
2 1 272 0 79 21 280 SDL/TYSA_SCALE_FACTOR80 2 268 281 282 8004 0 0 0 0 3 5 0 0 0
 FFTFFFFFFFFFFFFFF2 3 83 1 269 7830.64 84 8 270 Kg/Cu M 79 16 282 SDL/TYSA_DENSI
TY98 4 15 72 69 65 68 1 0 
