**ABCDEFGHIJKLMNOPQRSTUVWXYZabcdefghijklmnopqrstuvwxyz**************************
**PARASOLID !"#$%&'()*+,-./:;<=>?@[\]^_`{|}~0123456789**************************
**PART1;
MC=^_;
MC_MODEL=authenticamd family 15 model 4 stepping 1, amd ryzen 7 6800h with radeon graphics         ;
MC_ID=^_;
OS=windows nt (x64);
OS_RELEASE=6.3 windows 11 home china (build 26100) ;
FRU=mdc_ugii_v7.0_djl_can_vrh;
APPL=unigraphics;
SITE=unknown;
USER=^_;
FORMAT=text;
GUISE=transmit;
KEY=tail;
FILE=^_;
DATE=7-mar-2025;
**PART2;
SCH=SCH_3601193_36001;
USFLD_SIZE=0;
**PART3;
**END_OF_HEADER*****************************************************************
T51 : TRANSMIT FILE created by modeller version 360119323 SCH_3601193_36001_1300
6231 0 12 36 CCCI7 lattice222 0 CCCI4 mesh1006 0 I8 polyline1008 0 CCCCCCCDI5 ow
ner1040 0 CCCI16 boundary_lattice222 0 CCCI13 boundary_mesh1006 0 I17 boundary_p
olyline1008 0 CCCA16 index_map_offset0 0 1 dA9 index_map82 0 A17 node_id_index_m
ap82 0 A20 schema_embedding_map82 0 A5 child12 0 A14 lowest_node_id0 0 1 dA16 me
sh_offset_data206 0 Z1 205 2 3 0 0 0 0 0 0 0 1e3 1e-8 0 4 0 1 0 1 1 5 0 6 7 8 0
 0 9 10 11 0 0 0 0 0 0 0 81 255 1 2 187 12 1 13 0 0 14 15 70 11 CI9 list_type0 0
 1 uI10 notransmit0 0 1 lCCCDCCDI12 finger_index0 0 1 dI12 finger_block1012 0 CZ
3 0 4 T1 0 0 8 20 1 16 16 13 255 5 13 0 1 0 17 0 0 18 0 50 255 6 110 0 17 19 0 0
 +.0518204053939493 .043 0 -1 3729655473350135e-30 0 -3729655473350135e-30 -1 0
 30 255 7 118 0 20 21 0 0 +.0373704053939491 .00423080060813057 0 1 368086047677
342e-30 0 29 255 8 104 0 22 23 0 .0518204053939492 .0262308006081308 0 19 9 CCCC
CCI5 frame230 0 CA5 owner12 0 Z9 11 0 1 18 0 24 0 V0 16 255 10 51 25 ?26 0 27 28
 0 0 1 18 255 11 61 0 26 0 29 30 ?1 17 255 26 0 31 32 33 11 34 10 0 35 +18 29 60
 0 33 11 36 37 ?1 29 30 97 0 11 0 38 .0518204053939492 .0262308006081308 .02 29
 38 98 0 39 30 40 .0518204053939491 .004230800608130575 .02 18 39 58 0 32 36 22
 38 ?1 29 40 99 0 41 38 42 .0518204053939491 .004230800608130575 0 18 41 55 0 43
 44 45 40 ?1 29 42 100 0 45 40 46 .1292704053939492 .0262308006081306 0 18 45 54
 0 47 41 0 42 ?1 29 46 101 0 44 42 37 .129270405393949 .004230800608130605 0 18
 44 56 0 48 22 41 46 ?1 29 37 102 0 29 46 23 .1292704053939492 .0262308006081306
 .02 29 23 103 0 36 37 8 .129270405393949 .004230800608130605 .02 18 36 59 0 49
 29 39 23 ?1 17 49 0 31 33 32 36 50 51 0 52 +15 255 31 85 0 32 53 0 17 33 0 31 2
6 49 29 54 27 0 55 +17 32 0 31 49 26 39 56 57 0 50 +17 50 0 58 43 52 39 49 51 0
 59 -16 51 46 60 ?49 27 61 62 0 0 1 17 52 0 58 50 48 36 63 64 0 54 -15 58 73 0 4
3 65 0 17 48 0 58 52 43 44 66 20 0 63 +17 63 0 67 47 54 44 52 64 0 68 +16 64 36
 69 ?63 20 70 71 0 0 1 17 54 0 67 63 55 36 33 27 0 0 -15 67 69 0 47 72 0 17 55 0
 67 54 47 29 73 74 0 34 -16 27 49 75 ?33 10 51 76 0 0 1 81 1 75 195 77 27 78 0 2
5 60 79 30 76 93 0 27 80 28 0 +.129270405393949 .004230800608130605 .02 37848512
20313035e-30 1 0 30 80 91 0 70 81 76 0 +.129270405393949 .004230800608130605 0 3
784851220313035e-30 1 0 30 28 111 0 10 76 82 0 +.1292704053939492 .0262308006081
306 .02 -1 222739249363725e-29 0 30 82 112 0 57 28 62 0 +.0518204053939493 .043
 .02 -3729655473350135e-30 -1 0 16 57 24 83 ?32 84 85 82 0 0 1 30 62 113 0 51 82
 86 0 +.0373704053939491 .00423080060813057 .02 1 368086047677342e-30 0 30 86 11
4 0 87 62 88 0 +.0518204053939493 .043 0 -3729655473350135e-30 -1 0 16 87 14 89
 ?90 85 0 86 0 0 1 30 88 115 0 61 86 91 0 +.1292704053939492 .0262308006081306 0
 -1 222739249363725e-29 0 16 61 43 92 ?93 51 74 88 0 0 1 30 91 116 0 84 88 21 0
 +.0518204053939492 .0262308006081308 .02 0 0 -1 16 84 31 94 ?95 70 57 91 0 0 1
 30 21 117 0 85 91 7 0 -.0518204053939492 .004230800608130575 .02 0 0 1 16 85 21
 96 ?43 57 87 21 0 0 1 81 1 96 204 77 85 97 0 83 89 98 17 43 0 58 48 50 41 59 85
 0 66 +17 59 0 99 56 90 39 43 85 0 0 -17 66 0 100 101 68 41 48 20 0 90 -15 100 8
1 0 101 102 0 17 101 0 100 103 66 22 90 87 0 95 -17 68 0 100 66 103 44 47 70 0 0
 -16 20 38 104 ?48 74 64 7 0 0 1 17 90 0 99 59 95 41 101 87 0 0 +15 99 66 0 90 1
7 0 17 95 0 99 90 56 22 35 84 0 0 +17 56 0 99 95 59 11 32 57 0 0 -18 22 57 0 93
 39 44 8 ?1 17 35 0 105 34 93 11 95 84 0 56 -15 105 77 0 35 106 0 17 34 0 105 73
 35 29 26 10 0 0 -17 93 0 105 35 73 22 103 61 0 101 +17 73 0 105 93 34 45 55 74
 0 103 +17 103 0 100 68 101 45 93 61 0 0 -16 74 41 107 ?73 61 20 81 0 0 1 81 1 1
07 198 77 74 108 0 92 104 109 30 81 89 0 74 71 80 0 +.1292704053939492 .02623080
06081306 .02 0 0 -1 30 71 88 0 64 0 81 0 +.129270405393949 .004230800608130605 .
02 0 0 -1 80 7 CCCCCDI12 legal_owners0 17 1 lCZ1 77 0 110 8001 0 0 0 0 3 5 0 0 0
 FFFFTFTFFFFFFFFFF2 81 1 108 155 111 74 0 107 112 78 113 81 1 92 197 77 61 114 0
 60 107 115 81 1 104 199 77 20 116 0 107 69 117 83 255 3 109 .611764705882353 .6
58823529411765 .670588235294118 81 1 116 164 111 20 0 104 118 119 120 81 1 69 20
0 77 64 112 0 104 121 122 83 3 117 .611764705882353 .658823529411765 .6705882352
94118 81 1 112 154 111 64 0 69 0 108 123 81 1 121 201 77 70 124 0 69 94 125 83 3
 122 .611764705882353 .658823529411765 .670588235294118 16 70 34 121 ?47 64 84 8
0 0 0 1 81 1 124 157 111 70 0 121 78 114 126 81 1 94 202 77 84 118 0 121 83 127
 83 3 125 .611764705882353 .658823529411765 .670588235294118 81 1 118 163 111 84
 0 94 128 116 129 81 1 83 203 77 57 130 0 94 96 131 83 3 127 .611764705882353 .6
58823529411765 .670588235294118 81 1 130 160 111 57 0 83 132 97 133 83 3 131 .61
1764705882353 .658823529411765 .670588235294118 80 1 111 134 135 9000 1 1 1 1 1
 1 1 1 0 FFFFTFTFFFFFFFFFF3 81 1 132 159 111 10 0 25 114 130 136 81 1 97 161 111
 85 0 96 130 128 137 84 255 32 133 696eeff4100ed9af3b6ab028caf3557381 1 128 162
 111 51 0 60 97 118 138 84 32 137 b3aae80797a6e852dcc1e1fe814e9d4381 1 60 196 77
 51 128 0 75 92 139 84 32 138 5a6111326b9eada76abe2b77c0ecfe0183 3 139 .61176470
5882353 .658823529411765 .670588235294118 81 1 25 194 77 10 132 0 140 75 141 81
 1 114 158 111 61 0 92 124 132 142 84 32 136 6ddd907e52a6330b8b868ad9f936c2f284
 32 142 e2b437e2551ec97b2f5c4a9d07722c4a81 1 140 185 77 53 143 144 145 25 146 83
 3 141 .611764705882353 .658823529411765 .670588235294118 14 255 53 82 144 ?0 10
2 31 5 19 +0 0 0 102 24 81 1 143 169 111 53 0 140 147 148 149 81 1 144 193 12 53
 140 0 150 0 151 81 1 145 184 77 102 152 150 153 140 154 83 3 146 .6117647058823
53 .658823529411765 .670588235294118 14 102 78 150 ?53 106 100 5 155 -0 0 53 106
 24 81 1 152 167 111 102 0 145 156 147 157 81 1 150 192 12 102 145 0 158 144 159
 81 1 153 183 77 106 148 158 160 145 161 83 3 154 .611764705882353 .658823529411
765 .670588235294118 14 106 74 158 ?102 65 105 5 162 -0 0 102 65 24 81 1 148 170
 111 106 0 153 143 163 164 81 1 158 191 12 106 153 0 165 150 166 81 1 160 182 77
 65 147 165 167 153 168 83 3 161 .611764705882353 .658823529411765 .670588235294
118 14 65 70 165 ?106 72 58 5 169 -0 0 106 72 24 81 1 147 168 111 65 0 160 152 1
43 170 81 1 165 190 12 65 160 0 171 158 172 81 1 167 181 77 72 156 171 173 160 1
74 83 3 168 .611764705882353 .658823529411765 .670588235294118 14 72 67 171 ?65
 17 67 5 175 -0 0 65 17 24 81 1 156 166 111 72 0 167 119 152 176 81 1 171 189 12
 72 167 0 14 165 177 81 1 173 180 77 17 163 14 0 167 178 83 3 174 .6117647058823
53 .658823529411765 .670588235294118 14 17 62 14 ?72 0 99 5 6 +0 0 72 0 24 81 1
 163 171 111 17 179 173 148 0 180 81 1 14 188 12 17 173 0 2 171 181 83 3 178 .61
1764705882353 .658823529411765 .670588235294118 80 1 12 182 183 8038 0 0 0 0 0 0
 0 0 0 TTTTTTTTTTTTTFTFT10 98 255 7 181 73 78 32 84 65 73 76 79 255 14 183 SDL/T
YSA_UNAME81 1 179 65 184 17 0 163 0 0 185 84 32 180 323779f02e1907a519730b3e1a1a
8f9e80 1 184 186 187 9000 0 0 0 0 3 5 0 0 0 FFFFTFTFFFFFFFFFF1 82 255 1 185 4063
5 79 23 187 UGS/Original_entity_tag13 24 12 0 0 0 0 0 0 9 17 98 8 177 79 85 84 3
2 84 65 73 76 81 1 119 165 111 87 0 89 116 156 188 84 32 176 f2047dabcff4578edea
6074b633759d881 1 89 205 77 87 119 0 96 0 189 84 32 188 066245a157da2f0eee83cc0f
7f61134083 3 189 .611764705882353 .658823529411765 .670588235294118 50 175 86 0
 72 0 169 0 +.129270405393949 .004230800608130605 .02 -1 3784851220313035e-30 0
 -3784851220313035e-30 -1 0 50 169 106 0 65 175 162 0 +.0373704053939491 .004230
80060813057 .02 -368086047677342e-30 1 0 -1 -368086047677342e-30 0 50 162 107 0
 106 169 155 0 +.1292704053939492 .0262308006081306 .02 -222739249363725e-29 -1
 0 1 -222739249363725e-29 0 50 155 108 0 102 162 19 0 +-.0124 .01893064199214715
 0 0 0 1 1 0 0 50 19 109 0 53 155 6 0 +-.0124 .01893064199214715 .02 0 0 1 1 0 0
 98 4 172 80 69 82 49 84 32 170 a7f0e4a2af8d19d7b17036f87592a51198 4 166 80 69 8
2 50 84 32 164 fbe754cd5ee11ed63b08d096d7b2ab4c98 4 159 68 79 87 78 84 32 157 b3
23800bd862c8707424f927a18ec2e898 2 151 85 80 84 32 149 8b5e76f882fa8315b6c6888a5
82e86cf79 15 135 UGS/ObjectState84 32 129 94c54ac3d46eb1937e5d00cf4284f2e981 1 7
8 156 111 27 0 75 108 124 190 84 32 126 ef1161b10d0e19d98586c4b564dd27ba84 32 19
0 ce0fe48cb45335655cccca4d1150263b17 47 0 67 55 63 45 68 70 0 73 +84 32 123 b7ab
8ca7873e1ac2efd9a139bc5b828b84 32 120 79fd88be1f5830222fa171ee1f75e9ce83 3 115 .
611764705882353 .658823529411765 .670588235294118 84 32 113 1b482e18d812b2258b80
36b8e4d3410c79 15 110 SDL/TYSA_COLOUR83 3 98 .611764705882353 .658823529411765 .
670588235294118 83 3 79 .611764705882353 .658823529411765 .670588235294118 19 18
 1 0 1 0 9 5 0 S0 74 4 CI16 index_map_offset0 0 1 dCCZ20 16 8 0 0 191 192 179 16
3 193 89 13 144 0 0 0 0 0 0 0 0 0 0 0 0 81 1 191 4 194 1 0 192 0 0 195 81 2 192
 5 196 1 191 193 0 0 197 198 81 1 193 179 199 1 192 13 0 0 200 81 1 13 186 201 1
 193 2 0 0 202 80 1 201 77 203 8040 0 0 0 0 3 5 0 0 0 TTTFFFFFFFFFFFFFF2 83 3 20
2 .611764705882353 .658823529411765 .670588235294118 79 17 203 SDL/TYSA_COLOUR_2
80 1 199 111 204 9000 0 0 0 0 3 5 0 0 0 FFTFFFFFFFFFFFFFF1 82 1 200 13 79 7 204
 body_id80 2 196 205 206 8004 0 0 0 0 3 5 0 0 0 FFTFFFFFFFFFFFFFF2 3 83 1 197 78
30.64 84 8 198 Kg/Cu M 79 16 206 SDL/TYSA_DENSITY80 1 194 207 208 8051 0 0 0 0 3
 5 0 0 0 TFTFFFFFFFFFFFFFF1 82 1 195 0 79 21 208 SDL/TYSA_SCALE_FACTOR98 4 15 84
 65 73 76 1 0 
